<mxfile host="app.diagrams.net" agent="Mozilla/5.0 (Windows NT 10.0; Win64; x64) AppleWebKit/537.36 (KHTML, like Gecko) Chrome/131.0.0.0 Safari/537.36" version="25.0.1">
  <diagram name="Page-1" id="0Nhvojjp4UIwFRrSxgHD">
    <mxGraphModel dx="840" dy="482" grid="1" gridSize="10" guides="1" tooltips="1" connect="1" arrows="1" fold="1" page="1" pageScale="1" pageWidth="850" pageHeight="1100" math="0" shadow="0">
      <root>
        <mxCell id="0" />
        <mxCell id="1" parent="0" />
        <mxCell id="ZXYggToa8pD7s5UsmLcx-1" value="Koordinator" style="swimlane;whiteSpace=wrap;html=1;" vertex="1" parent="1">
          <mxGeometry x="210" y="140" width="200" height="460" as="geometry" />
        </mxCell>
        <mxCell id="ZXYggToa8pD7s5UsmLcx-2" value="&lt;font style=&quot;font-size: 9px;&quot;&gt;start&lt;/font&gt;" style="rounded=0;orthogonalLoop=1;jettySize=auto;html=1;" edge="1" parent="ZXYggToa8pD7s5UsmLcx-1" source="ZXYggToa8pD7s5UsmLcx-3" target="ZXYggToa8pD7s5UsmLcx-4">
          <mxGeometry relative="1" as="geometry" />
        </mxCell>
        <mxCell id="ZXYggToa8pD7s5UsmLcx-3" value="" style="ellipse;whiteSpace=wrap;html=1;aspect=fixed;" vertex="1" parent="ZXYggToa8pD7s5UsmLcx-1">
          <mxGeometry x="90" y="30" width="20" height="20" as="geometry" />
        </mxCell>
        <mxCell id="ZXYggToa8pD7s5UsmLcx-4" value="Membuka Fitur Monitoring Sidang Pada SIdebar" style="rounded=1;whiteSpace=wrap;html=1;fontSize=8;" vertex="1" parent="ZXYggToa8pD7s5UsmLcx-1">
          <mxGeometry x="45" y="80" width="110" height="40" as="geometry" />
        </mxCell>
        <mxCell id="ZXYggToa8pD7s5UsmLcx-5" value="Sidang TA 1 - Reguler" style="rounded=1;whiteSpace=wrap;html=1;fontSize=8;" vertex="1" parent="ZXYggToa8pD7s5UsmLcx-1">
          <mxGeometry x="45" y="140" width="110" height="30" as="geometry" />
        </mxCell>
        <mxCell id="ZXYggToa8pD7s5UsmLcx-6" value="Sidang TA 1 - Publikasi" style="rounded=1;whiteSpace=wrap;html=1;fontSize=8;" vertex="1" parent="ZXYggToa8pD7s5UsmLcx-1">
          <mxGeometry x="45" y="210" width="110" height="30" as="geometry" />
        </mxCell>
        <mxCell id="ZXYggToa8pD7s5UsmLcx-7" value="Sidang TA 2 - Publikasi" style="rounded=1;whiteSpace=wrap;html=1;fontSize=8;" vertex="1" parent="ZXYggToa8pD7s5UsmLcx-1">
          <mxGeometry x="45" y="350" width="110" height="30" as="geometry" />
        </mxCell>
        <mxCell id="ZXYggToa8pD7s5UsmLcx-8" value="Sidang TA 2&amp;nbsp; - Reguler" style="rounded=1;whiteSpace=wrap;html=1;fontSize=8;" vertex="1" parent="ZXYggToa8pD7s5UsmLcx-1">
          <mxGeometry x="45" y="280" width="110" height="30" as="geometry" />
        </mxCell>
        <mxCell id="ZXYggToa8pD7s5UsmLcx-9" value="Sistem" style="swimlane;whiteSpace=wrap;html=1;" vertex="1" parent="1">
          <mxGeometry x="410" y="140" width="200" height="460" as="geometry" />
        </mxCell>
        <mxCell id="ZXYggToa8pD7s5UsmLcx-10" value="&lt;font style=&quot;font-size: 8px;&quot;&gt;end&lt;/font&gt;" style="edgeStyle=orthogonalEdgeStyle;rounded=0;orthogonalLoop=1;jettySize=auto;html=1;entryX=0.5;entryY=1;entryDx=0;entryDy=0;" edge="1" parent="ZXYggToa8pD7s5UsmLcx-9" source="ZXYggToa8pD7s5UsmLcx-11" target="ZXYggToa8pD7s5UsmLcx-14">
          <mxGeometry relative="1" as="geometry" />
        </mxCell>
        <mxCell id="ZXYggToa8pD7s5UsmLcx-11" value="Menampilkan Halaman Monitoring Sidang" style="rounded=1;whiteSpace=wrap;html=1;fontSize=8;" vertex="1" parent="ZXYggToa8pD7s5UsmLcx-9">
          <mxGeometry x="40" y="80" width="110" height="40" as="geometry" />
        </mxCell>
        <mxCell id="ZXYggToa8pD7s5UsmLcx-12" style="edgeStyle=orthogonalEdgeStyle;rounded=0;orthogonalLoop=1;jettySize=auto;html=1;entryX=0.5;entryY=0;entryDx=0;entryDy=0;" edge="1" parent="ZXYggToa8pD7s5UsmLcx-9" source="ZXYggToa8pD7s5UsmLcx-13" target="ZXYggToa8pD7s5UsmLcx-17">
          <mxGeometry relative="1" as="geometry" />
        </mxCell>
        <mxCell id="ZXYggToa8pD7s5UsmLcx-13" value="Menampilkan daftar Mahasiswa yang sudah mendaftar TA Sesuai yang dipilih Koordinator" style="rounded=1;whiteSpace=wrap;html=1;fontSize=8;" vertex="1" parent="ZXYggToa8pD7s5UsmLcx-9">
          <mxGeometry x="40" y="205" width="110" height="40" as="geometry" />
        </mxCell>
        <mxCell id="ZXYggToa8pD7s5UsmLcx-14" value="" style="ellipse;whiteSpace=wrap;html=1;aspect=fixed;" vertex="1" parent="ZXYggToa8pD7s5UsmLcx-9">
          <mxGeometry x="85" y="30" width="20" height="20" as="geometry" />
        </mxCell>
        <mxCell id="ZXYggToa8pD7s5UsmLcx-15" value="&lt;font style=&quot;font-size: 9px;&quot;&gt;Revisi&lt;/font&gt;" style="edgeStyle=orthogonalEdgeStyle;rounded=0;orthogonalLoop=1;jettySize=auto;html=1;entryX=1;entryY=0.5;entryDx=0;entryDy=0;strokeColor=#ff0000;" edge="1" parent="ZXYggToa8pD7s5UsmLcx-9" source="ZXYggToa8pD7s5UsmLcx-17" target="ZXYggToa8pD7s5UsmLcx-19">
          <mxGeometry relative="1" as="geometry">
            <Array as="points">
              <mxPoint x="140" y="315" />
              <mxPoint x="140" y="375" />
            </Array>
          </mxGeometry>
        </mxCell>
        <mxCell id="ZXYggToa8pD7s5UsmLcx-16" value="&lt;font style=&quot;font-size: 9px;&quot;&gt;ACC&lt;/font&gt;" style="edgeStyle=orthogonalEdgeStyle;rounded=0;orthogonalLoop=1;jettySize=auto;html=1;exitX=0;exitY=0.5;exitDx=0;exitDy=0;entryX=0;entryY=0.5;entryDx=0;entryDy=0;strokeColor=#00ff33;" edge="1" parent="ZXYggToa8pD7s5UsmLcx-9" source="ZXYggToa8pD7s5UsmLcx-17" target="ZXYggToa8pD7s5UsmLcx-19">
          <mxGeometry relative="1" as="geometry" />
        </mxCell>
        <mxCell id="ZXYggToa8pD7s5UsmLcx-17" value="&lt;font style=&quot;font-size: 8px;&quot;&gt;Validasi Sidang&lt;/font&gt;" style="rhombus;whiteSpace=wrap;html=1;" vertex="1" parent="ZXYggToa8pD7s5UsmLcx-9">
          <mxGeometry x="70" y="270" width="50" height="70" as="geometry" />
        </mxCell>
        <mxCell id="ZXYggToa8pD7s5UsmLcx-18" value="&lt;font style=&quot;font-size: 9px;&quot;&gt;End&lt;/font&gt;" style="edgeStyle=orthogonalEdgeStyle;rounded=0;orthogonalLoop=1;jettySize=auto;html=1;entryX=0.5;entryY=0;entryDx=0;entryDy=0;" edge="1" parent="ZXYggToa8pD7s5UsmLcx-9" source="ZXYggToa8pD7s5UsmLcx-19" target="ZXYggToa8pD7s5UsmLcx-20">
          <mxGeometry relative="1" as="geometry" />
        </mxCell>
        <mxCell id="ZXYggToa8pD7s5UsmLcx-19" value="Hasil" style="rounded=1;whiteSpace=wrap;html=1;fontSize=8;" vertex="1" parent="ZXYggToa8pD7s5UsmLcx-9">
          <mxGeometry x="75" y="360" width="40" height="30" as="geometry" />
        </mxCell>
        <mxCell id="ZXYggToa8pD7s5UsmLcx-20" value="" style="ellipse;whiteSpace=wrap;html=1;aspect=fixed;" vertex="1" parent="ZXYggToa8pD7s5UsmLcx-9">
          <mxGeometry x="85" y="430" width="20" height="20" as="geometry" />
        </mxCell>
        <mxCell id="ZXYggToa8pD7s5UsmLcx-21" value="&lt;b&gt;Activity Diagram Dashboard Koordinator&lt;/b&gt;" style="text;html=1;align=center;verticalAlign=middle;whiteSpace=wrap;rounded=0;" vertex="1" parent="1">
          <mxGeometry x="270" y="100" width="280" height="30" as="geometry" />
        </mxCell>
        <mxCell id="ZXYggToa8pD7s5UsmLcx-22" style="rounded=0;orthogonalLoop=1;jettySize=auto;html=1;entryX=0;entryY=0.5;entryDx=0;entryDy=0;" edge="1" parent="1" source="ZXYggToa8pD7s5UsmLcx-4" target="ZXYggToa8pD7s5UsmLcx-11">
          <mxGeometry relative="1" as="geometry" />
        </mxCell>
        <mxCell id="ZXYggToa8pD7s5UsmLcx-23" style="rounded=0;orthogonalLoop=1;jettySize=auto;html=1;entryX=0.5;entryY=0;entryDx=0;entryDy=0;exitX=0;exitY=0.75;exitDx=0;exitDy=0;edgeStyle=orthogonalEdgeStyle;" edge="1" parent="1" source="ZXYggToa8pD7s5UsmLcx-11" target="ZXYggToa8pD7s5UsmLcx-5">
          <mxGeometry relative="1" as="geometry">
            <Array as="points">
              <mxPoint x="370" y="250" />
              <mxPoint x="370" y="270" />
              <mxPoint x="310" y="270" />
            </Array>
          </mxGeometry>
        </mxCell>
        <mxCell id="ZXYggToa8pD7s5UsmLcx-24" style="edgeStyle=orthogonalEdgeStyle;rounded=0;orthogonalLoop=1;jettySize=auto;html=1;entryX=0.5;entryY=0;entryDx=0;entryDy=0;" edge="1" parent="1" source="ZXYggToa8pD7s5UsmLcx-5" target="ZXYggToa8pD7s5UsmLcx-13">
          <mxGeometry relative="1" as="geometry">
            <Array as="points">
              <mxPoint x="310" y="320" />
              <mxPoint x="505" y="320" />
            </Array>
          </mxGeometry>
        </mxCell>
        <mxCell id="ZXYggToa8pD7s5UsmLcx-25" style="edgeStyle=orthogonalEdgeStyle;rounded=0;orthogonalLoop=1;jettySize=auto;html=1;entryX=0;entryY=0.5;entryDx=0;entryDy=0;" edge="1" parent="1" source="ZXYggToa8pD7s5UsmLcx-6" target="ZXYggToa8pD7s5UsmLcx-13">
          <mxGeometry relative="1" as="geometry" />
        </mxCell>
        <mxCell id="ZXYggToa8pD7s5UsmLcx-26" style="edgeStyle=orthogonalEdgeStyle;rounded=0;orthogonalLoop=1;jettySize=auto;html=1;entryX=0;entryY=0.75;entryDx=0;entryDy=0;" edge="1" parent="1" source="ZXYggToa8pD7s5UsmLcx-8" target="ZXYggToa8pD7s5UsmLcx-13">
          <mxGeometry relative="1" as="geometry">
            <Array as="points">
              <mxPoint x="420" y="435" />
              <mxPoint x="420" y="375" />
            </Array>
          </mxGeometry>
        </mxCell>
        <mxCell id="ZXYggToa8pD7s5UsmLcx-27" style="edgeStyle=orthogonalEdgeStyle;rounded=0;orthogonalLoop=1;jettySize=auto;html=1;entryX=0;entryY=1;entryDx=0;entryDy=0;" edge="1" parent="1" source="ZXYggToa8pD7s5UsmLcx-7" target="ZXYggToa8pD7s5UsmLcx-13">
          <mxGeometry relative="1" as="geometry">
            <Array as="points">
              <mxPoint x="430" y="505" />
              <mxPoint x="430" y="385" />
            </Array>
          </mxGeometry>
        </mxCell>
        <mxCell id="ZXYggToa8pD7s5UsmLcx-28" style="rounded=0;orthogonalLoop=1;jettySize=auto;html=1;exitX=0;exitY=1;exitDx=0;exitDy=0;entryX=0.5;entryY=0;entryDx=0;entryDy=0;edgeStyle=orthogonalEdgeStyle;" edge="1" parent="1" source="ZXYggToa8pD7s5UsmLcx-11" target="ZXYggToa8pD7s5UsmLcx-6">
          <mxGeometry relative="1" as="geometry">
            <Array as="points">
              <mxPoint x="380" y="260" />
              <mxPoint x="380" y="330" />
              <mxPoint x="310" y="330" />
            </Array>
          </mxGeometry>
        </mxCell>
        <mxCell id="ZXYggToa8pD7s5UsmLcx-29" style="rounded=0;orthogonalLoop=1;jettySize=auto;html=1;exitX=0.25;exitY=1;exitDx=0;exitDy=0;edgeStyle=orthogonalEdgeStyle;entryX=0.5;entryY=0;entryDx=0;entryDy=0;" edge="1" parent="1" source="ZXYggToa8pD7s5UsmLcx-11" target="ZXYggToa8pD7s5UsmLcx-8">
          <mxGeometry relative="1" as="geometry">
            <mxPoint x="320" y="420" as="targetPoint" />
            <Array as="points">
              <mxPoint x="477" y="270" />
              <mxPoint x="390" y="270" />
              <mxPoint x="390" y="390" />
              <mxPoint x="310" y="390" />
            </Array>
          </mxGeometry>
        </mxCell>
        <mxCell id="ZXYggToa8pD7s5UsmLcx-30" style="rounded=0;orthogonalLoop=1;jettySize=auto;html=1;exitX=0.5;exitY=1;exitDx=0;exitDy=0;edgeStyle=orthogonalEdgeStyle;entryX=0.5;entryY=0;entryDx=0;entryDy=0;" edge="1" parent="1" source="ZXYggToa8pD7s5UsmLcx-11" target="ZXYggToa8pD7s5UsmLcx-7">
          <mxGeometry relative="1" as="geometry">
            <mxPoint x="370" y="490" as="targetPoint" />
            <Array as="points">
              <mxPoint x="505" y="280" />
              <mxPoint x="400" y="280" />
              <mxPoint x="400" y="470" />
              <mxPoint x="310" y="470" />
            </Array>
          </mxGeometry>
        </mxCell>
      </root>
    </mxGraphModel>
  </diagram>
</mxfile>
